<?xml version="1.0" standalone="no"?>
<!DOCTYPE svg PUBLIC "-//W3C//DTD SVG 20010904//EN"
 "http://www.w3.org/TR/2001/REC-SVG-20010904/DTD/svg10.dtd">
<svg version="1.0" xmlns="http://www.w3.org/2000/svg"
 width="750.000000pt" height="500.000000pt" viewBox="0 0 750.000000 500.000000"
 preserveAspectRatio="xMidYMid meet">

<g transform="translate(0.000000,500.000000) scale(0.100000,-0.100000)"
fill="#000000" stroke="none">
<path d="M2520 4515 l0 -165 150 0 150 0 0 165 0 165 -150 0 -150 0 0 -165z
m290 140 c0 -13 -22 -15 -140 -15 -118 0 -140 2 -140 15 0 13 22 15 140 15
118 0 140 -2 140 -15z m-67 -32 c-40 -2 -106 -2 -145 0 -40 1 -8 3 72 3 80 0
112 -2 73 -3z m-93 -138 l0 -115 -60 0 -60 0 0 115 0 115 60 0 60 0 0 -115z
m160 75 l0 -41 -72 3 -73 3 -3 38 -3 37 75 0 76 0 0 -40z m0 -60 c0 -6 -32
-10 -75 -10 -43 0 -75 4 -75 10 0 6 32 10 75 10 43 0 75 -4 75 -10z m0 -75 l0
-55 -75 0 -75 0 0 55 0 55 75 0 75 0 0 -55z"/>
<path d="M2568 4553 c12 -2 32 -2 45 0 12 2 2 4 -23 4 -25 0 -35 -2 -22 -4z"/>
<path d="M2550 4520 c0 -5 18 -10 40 -10 22 0 40 5 40 10 0 6 -18 10 -40 10
-22 0 -40 -4 -40 -10z"/>
<path d="M5996 4644 c-3 -9 -6 -24 -6 -34 0 -26 -59 -39 -75 -16 -17 23 -35
19 -74 -14 -32 -27 -34 -31 -22 -54 11 -20 11 -28 -4 -54 -14 -23 -25 -29 -48
-28 -26 1 -31 -3 -43 -44 -14 -46 -6 -70 22 -70 10 0 14 -13 14 -39 0 -30 -5
-41 -19 -46 -27 -8 -31 -27 -18 -66 18 -52 26 -60 51 -53 33 8 63 -38 47 -73
-13 -29 -6 -41 42 -75 l30 -21 18 22 c26 32 72 17 79 -25 5 -28 7 -29 60 -29
53 0 55 1 60 29 7 41 57 59 78 28 13 -20 16 -20 41 -8 14 8 35 23 45 35 17 18
18 24 6 45 -11 21 -10 28 9 55 18 25 26 29 41 21 21 -11 34 1 44 42 3 14 9 33
12 42 4 10 -3 19 -20 27 -21 10 -26 19 -26 51 0 26 4 38 14 38 30 0 37 25 20
73 -14 41 -19 47 -45 47 -41 0 -67 40 -50 78 12 24 10 28 -21 54 -38 32 -56
35 -73 12 -8 -12 -20 -15 -43 -9 -29 6 -37 15 -33 39 6 34 -100 53 -113 20z
m91 -7 c4 -7 7 -20 8 -30 0 -13 13 -23 40 -33 38 -13 41 -12 57 8 l16 22 36
-28 c35 -26 35 -28 20 -51 -15 -23 -14 -26 11 -59 22 -29 32 -35 51 -30 19 5
26 1 34 -21 16 -41 12 -66 -10 -72 -16 -4 -20 -14 -20 -53 0 -39 4 -49 20 -53
22 -6 26 -31 10 -72 -8 -22 -15 -26 -35 -21 -20 5 -29 0 -49 -31 -23 -33 -24
-39 -11 -59 13 -20 11 -24 -14 -48 -32 -31 -47 -33 -61 -7 -9 18 -13 19 -48 7
-29 -10 -38 -19 -42 -42 -5 -26 -10 -29 -47 -32 -34 -3 -42 0 -48 17 -3 12 -4
25 -1 30 3 5 -14 15 -38 23 -40 13 -44 13 -55 -4 -15 -24 -31 -23 -64 7 -26
25 -26 27 -11 50 15 23 14 26 -11 59 -23 30 -30 34 -50 26 -21 -8 -25 -5 -39
36 -15 44 -15 45 9 56 22 10 25 18 25 60 0 41 -3 48 -19 48 -29 0 -32 13 -17
56 12 34 17 39 42 37 23 -1 34 5 52 34 21 32 21 37 7 53 -21 23 -20 25 20 56
l35 26 17 -21 c16 -18 22 -19 56 -8 30 10 37 17 37 38 0 14 2 28 5 30 10 10
75 6 82 -4z"/>
<path d="M5979 4417 c-97 -65 -88 -217 17 -267 77 -38 154 -5 189 82 53 134
-89 263 -206 185z m160 -22 c56 -53 58 -150 5 -206 -66 -69 -167 -51 -208 35
-31 66 -15 129 46 181 28 23 39 27 81 22 35 -3 56 -12 76 -32z"/>
<path d="M1063 4439 c-4 -14 -11 -18 -22 -14 -9 4 -39 11 -67 17 -90 18 -223
-32 -283 -107 l-20 -26 -40 20 c-22 12 -44 21 -49 21 -8 0 -52 -83 -52 -99 0
-5 18 -20 40 -33 l41 -24 2 -99 c2 -86 6 -108 30 -157 16 -33 49 -76 77 -101
35 -32 46 -47 39 -58 -5 -8 -9 -17 -9 -20 0 -7 100 -62 104 -57 9 9 57 110 54
113 -2 1 -26 14 -55 29 l-52 26 -12 -21 c-11 -21 -12 -20 -50 17 -22 22 -52
64 -67 94 -36 73 -39 200 -6 271 60 130 204 204 332 170 38 -11 41 -14 31 -32
-13 -25 -16 -20 47 -52 l51 -26 27 56 c15 30 26 56 24 57 -19 13 -98 56 -103
56 -4 0 -9 -9 -12 -21z m55 -38 c13 -8 7 -61 -7 -61 -22 0 -43 28 -37 48 8 23
22 27 44 13z m-480 -116 c1 -1 -3 -14 -9 -28 -10 -23 -15 -25 -33 -15 -12 6
-22 12 -24 13 -1 1 3 14 9 28 10 23 15 25 33 15 12 -6 22 -12 24 -13z m206
-478 c15 -11 17 -17 7 -35 -13 -25 -15 -26 -41 -12 -17 9 -18 14 -8 35 13 29
17 30 42 12z"/>
<path d="M2120 4433 l0 -26 23 21 c14 13 36 22 55 22 l32 0 0 -163 c0 -95 -4
-167 -10 -173 -7 -7 6 -10 39 -10 48 0 49 1 40 25 -6 13 -9 91 -8 173 l1 148
30 0 c38 0 67 -16 78 -43 7 -19 9 -16 9 16 l1 37 -145 0 -145 0 0 -27z"/>
<path d="M3645 4397 c-3 -7 -4 -134 -3 -282 l3 -270 298 -3 297 -2 0 25 0 25
-262 2 -263 3 0 175 0 175 325 0 325 0 3 -97 3 -98 35 0 34 0 -2 178 -3 177
-393 3 c-311 2 -394 0 -397 -11z m390 -72 c0 -19 -8 -20 -154 -23 -155 -3
-179 2 -168 33 6 13 28 15 164 13 150 -3 158 -4 158 -23z m213 3 c-2 -19 -9
-23 -38 -23 -29 0 -36 4 -38 23 -3 20 1 22 38 22 37 0 41 -2 38 -22z m122 -3
c0 -22 -4 -25 -34 -25 -37 0 -51 12 -42 35 3 9 19 15 41 15 31 0 35 -3 35 -25z"/>
<path d="M4059 4143 c-44 -115 -59 -157 -55 -160 2 -2 8 9 14 24 5 15 21 58
35 96 15 37 24 67 21 67 -2 0 -9 -12 -15 -27z"/>
<path d="M5493 4160 c-13 -5 -23 -17 -23 -26 0 -27 -30 -44 -53 -30 -15 9 -22
7 -38 -13 -15 -18 -17 -27 -8 -38 17 -20 -4 -63 -31 -63 -16 0 -20 -7 -20 -35
0 -24 5 -35 15 -35 22 0 31 -48 11 -63 -14 -10 -15 -16 -4 -40 10 -21 18 -26
34 -22 27 6 55 -24 48 -51 -4 -14 2 -24 21 -34 24 -13 28 -12 36 3 14 24 50
22 56 -4 8 -30 67 -23 71 9 4 29 38 48 58 31 8 -6 16 -10 17 -8 1 2 11 14 21
26 15 18 16 26 7 37 -15 18 -3 46 25 57 18 6 24 16 24 39 0 19 -5 30 -14 30
-22 0 -31 52 -11 66 15 11 15 15 1 43 -11 20 -21 28 -31 24 -22 -8 -54 24 -48
47 8 28 -42 50 -60 27 -15 -21 -53 -12 -60 14 -6 21 -11 22 -44 9z m93 -148
c48 -33 57 -105 18 -151 -33 -39 -80 -42 -121 -7 -23 20 -28 32 -28 71 0 39 5
51 28 71 28 24 80 32 103 16z"/>
<path d="M3908 4094 c-27 -13 -48 -28 -48 -32 0 -9 99 -57 105 -50 3 3 -13 13
-35 23 -22 10 -40 22 -40 26 0 5 18 18 40 29 37 19 50 31 33 30 -5 -1 -29 -12
-55 -26z"/>
<path d="M4120 4111 c0 -4 16 -15 35 -24 19 -9 35 -20 35 -25 0 -5 -16 -16
-36 -26 -20 -9 -34 -19 -31 -22 3 -3 28 7 57 21 29 14 50 29 47 32 -13 12
-107 52 -107 44z"/>
<path d="M4373 3960 c16 -27 -2 -55 -37 -55 -14 1 -26 -4 -26 -10 0 -19 23
-35 51 -35 15 0 30 -4 33 -9 10 -16 -6 -41 -26 -41 -29 0 -58 -19 -58 -37 0
-13 3 -14 12 -5 19 19 61 -25 47 -49 -14 -28 7 -24 25 4 7 12 16 34 20 50 8
32 26 35 44 7 7 -12 17 -18 23 -15 5 4 9 3 8 -2 -3 -20 2 -22 20 -5 18 16 17
18 -12 49 -24 25 -28 35 -19 46 7 8 10 16 7 19 -3 2 8 3 24 0 21 -3 33 2 45
19 8 13 13 25 10 28 -3 3 -9 -1 -14 -9 -7 -12 -13 -10 -34 9 -24 23 -25 26 -9
43 22 25 -2 23 -27 -2 -11 -11 -17 -26 -14 -35 7 -18 -12 -45 -32 -45 -9 0
-14 11 -14 28 0 31 -16 56 -42 65 -15 5 -16 4 -5 -13z"/>
<path d="M1200 2420 l0 -1480 435 0 434 0 3 -185 3 -185 -177 0 -177 0 -35
-30 -34 -31 -262 1 c-210 1 -265 -1 -279 -13 -9 -7 -72 -61 -141 -118 -69 -58
-197 -165 -285 -239 l-159 -135 1617 -3 c889 -1 2343 -1 3231 0 l1614 3 -82
91 c-44 50 -151 167 -236 259 l-155 168 -852 -7 c-468 -4 -879 -4 -913 0 l-61
7 25 26 c59 62 102 200 94 297 -3 27 -19 101 -36 165 -17 64 -34 139 -38 168
l-7 51 827 0 826 0 0 913 0 914 -23 44 c-16 31 -36 51 -67 67 l-44 22 -1335 0
c-1329 0 -1335 0 -1377 -21 -49 -23 -81 -68 -93 -131 -5 -24 -9 -35 -10 -26
-1 15 -5 15 -36 -5 -19 -12 -35 -29 -36 -37 -8 -60 -17 219 -18 543 l-1 387
-1070 0 -1070 0 0 -1480z m1649 1339 c-11 -7 -11 -9 4 -9 9 0 17 5 17 10 0 15
120 13 121 -2 0 -10 2 -10 6 0 3 8 37 12 120 12 l116 0 -6 -587 c-4 -322 -7
-743 -7 -935 0 -326 -1 -348 -18 -348 -31 0 -136 -70 -167 -111 -16 -22 -44
-49 -62 -60 -17 -11 -45 -35 -61 -53 -16 -19 -43 -37 -60 -41 -36 -7 -49 -31
-22 -40 18 -6 17 -8 -5 -62 -13 -34 -31 -60 -43 -64 -30 -11 -37 -30 -13 -36
28 -7 27 -21 -4 -33 -31 -12 -32 -35 -2 -45 22 -7 22 -7 -5 -18 -34 -13 -43
-34 -17 -42 10 -4 19 -12 19 -18 -1 -25 -30 -181 -36 -186 -3 -3 -323 -7 -710
-9 l-704 -2 0 1345 0 1345 634 0 c629 0 634 0 629 -20 -5 -20 -10 -22 -48 -24
-14 -1 -20 -8 -21 -26 -1 -44 -4 -50 -19 -50 -8 0 -15 -9 -15 -20 0 -11 4 -20
9 -20 13 0 20 -37 10 -47 -13 -13 1 -45 17 -39 7 3 18 -2 24 -10 11 -12 -57
-14 -516 -16 l-529 -3 518 -2 c447 -3 521 -5 542 -19 15 -10 25 -12 30 -5 9
16 42 13 49 -4 6 -18 36 -9 36 11 0 11 18 14 73 16 39 1 56 3 36 5 -27 3 -38
10 -42 25 -7 26 2 48 19 48 18 0 17 30 -1 54 -11 14 -12 23 -4 33 16 18 4 41
-23 45 -13 2 -24 11 -26 23 -6 30 -19 40 -36 25 -17 -13 -46 -7 -46 9 0 13 46
17 159 13 62 -2 90 -7 80 -13z m-192 -101 c30 -28 29 -63 -2 -94 -29 -29 -58
-26 -87 8 -23 27 -23 49 3 82 25 32 55 33 86 4z m3603 -1443 l0 -835 -780 0
-779 0 -6 38 c-4 20 -20 91 -37 157 -16 66 -32 134 -35 150 -9 48 -46 89 -114
122 -219 106 -297 143 -322 149 -15 3 -40 18 -56 33 -15 14 -34 25 -42 23 -8
-1 -25 16 -39 38 -36 58 -49 52 -43 -19 7 -71 -14 -139 -63 -212 -23 -34 -34
-63 -34 -88 -1 -29 -10 -47 -50 -91 l-49 -55 -40 40 c-34 32 -41 46 -41 77 0
29 -10 50 -40 90 -22 29 -56 84 -75 122 -32 62 -35 77 -35 152 0 97 -35 225
-76 273 -14 17 -26 41 -26 53 -1 13 -5 28 -8 33 -21 30 -21 135 0 135 4 0 15
-28 25 -62 41 -149 65 -178 148 -178 67 0 83 8 100 51 8 21 20 39 26 39 6 0
20 -18 31 -40 l20 -40 68 0 c78 0 116 16 120 50 2 13 10 33 17 44 7 12 16 37
20 56 19 98 25 112 48 106 22 -5 22 -5 2 11 -19 15 -19 15 10 9 28 -7 29 -6
11 7 -17 13 -20 29 -21 133 -2 138 -15 180 -73 230 l-37 33 1138 1 1137 0 0
-835z m-2271 589 c11 -14 23 -42 26 -63 4 -20 12 -56 20 -80 11 -36 11 -51 -2
-95 l-14 -51 -77 -1 c-74 -2 -75 -1 -46 14 16 9 45 18 64 21 19 4 34 11 33 16
-5 22 -54 15 -115 -16 -58 -30 -61 -33 -38 -40 19 -5 21 -7 6 -8 -11 -1 -35
-6 -53 -13 -27 -10 -38 -10 -53 0 -12 7 -58 12 -119 12 -114 0 -106 -9 -120
125 -8 65 -6 86 6 113 8 17 18 32 22 32 4 0 34 -5 66 -11 75 -14 210 3 279 36
92 42 89 41 115 9z m5 -347 c-1 -21 -6 -43 -12 -49 -6 -6 -42 -13 -81 -16
l-70 -5 -17 37 c-12 24 -14 40 -8 46 12 12 114 29 159 27 28 -2 30 -4 29 -40z
m-280 17 c22 -9 20 -50 -4 -74 -22 -22 -97 -28 -130 -10 -16 8 -40 58 -40 81
0 10 150 12 174 3z m920 -1140 c14 -14 16 -75 16 -520 0 -491 -1 -505 -20
-524 -20 -20 -33 -20 -854 -20 -779 0 -835 1 -855 18 -22 17 -22 17 -21 514 0
273 3 505 7 515 4 10 11 21 17 25 6 4 390 8 853 8 752 0 843 -2 857 -16z
m-1999 -404 c3 -5 2 -10 -3 -10 -21 0 -47 -235 -34 -302 l9 -48 -68 0 -69 0 0
185 0 185 79 0 c44 0 83 -4 86 -10z m2015 -713 c0 -13 -5 -28 -12 -35 -17 -17
-1709 -17 -1726 0 -7 7 -12 22 -12 35 l0 23 875 0 875 0 0 -23z"/>
<path d="M2822 3513 c3 -18 -31 -60 -44 -55 -5 1 -8 -7 -8 -19 0 -11 4 -18 9
-15 11 7 41 -37 41 -59 0 -8 5 -15 10 -15 6 0 10 6 10 13 0 6 16 17 35 23 19
6 32 7 29 2 -3 -4 0 -8 5 -8 15 0 14 16 -1 40 -10 16 -10 24 0 41 7 12 11 24
7 27 -9 9 -36 11 -30 2 3 -4 -6 -3 -20 3 -14 7 -25 18 -25 25 0 6 -5 12 -11
12 -6 0 -9 -8 -7 -17z m53 -64 c4 -12 3 -25 -3 -31 -17 -17 -45 -4 -52 22 -6
23 -4 26 21 28 20 2 29 -3 34 -19z"/>
<path d="M2958 3493 c17 -2 47 -2 65 0 17 2 3 4 -33 4 -36 0 -50 -2 -32 -4z"/>
<path d="M6010 2760 l0 -150 -940 2 c-517 2 -940 0 -940 -4 0 -5 425 -8 945
-8 l945 0 0 155 c0 85 -2 155 -5 155 -3 0 -5 -68 -5 -150z"/>
<path d="M4101 2684 c0 -11 3 -14 6 -6 3 7 2 16 -1 19 -3 4 -6 -2 -5 -13z"/>
<path d="M4107 2544 c-4 -4 -7 -22 -7 -41 l0 -33 96 0 95 0 -3 38 -3 37 -85 3
c-47 1 -89 0 -93 -4z"/>
<path d="M4320 2510 l0 -40 145 0 145 0 0 39 0 39 -145 1 -145 2 0 -41z"/>
<path d="M4638 2543 c-2 -4 -4 -21 -4 -38 l1 -30 108 -3 108 -3 -3 38 -3 38
-102 3 c-55 2 -103 -1 -105 -5z"/>
<path d="M4870 2511 l0 -41 145 0 145 0 0 38 0 39 -145 2 -145 2 0 -40z"/>
<path d="M5490 2395 c0 -8 2 -15 4 -15 2 0 6 7 10 15 3 8 1 15 -4 15 -6 0 -10
-7 -10 -15z"/>
<path d="M6010 2303 c0 -60 -4 -103 -8 -98 -17 25 -94 77 -105 72 -7 -3 -19
-23 -26 -46 -6 -23 -15 -41 -19 -41 -4 0 -37 45 -72 100 -36 55 -69 99 -75
100 -5 0 -24 -17 -40 -38 -27 -32 -34 -53 -49 -152 -11 -63 -21 -119 -24 -124
-2 -4 -14 7 -25 25 -11 19 -22 36 -24 38 -2 3 -14 -6 -28 -19 l-25 -23 0 -339
0 -338 265 0 265 0 0 495 c0 272 -2 495 -5 495 -3 0 -5 -48 -5 -107z"/>
<path d="M4175 2020 c-16 -7 -17 -9 -3 -9 9 -1 20 4 23 9 7 11 7 11 -20 0z"/>
<path d="M3520 2550 c0 -5 11 -10 25 -10 13 0 42 -7 64 -16 21 -8 54 -14 73
-12 32 3 31 4 -25 26 -61 23 -137 30 -137 12z"/>
<path d="M3784 919 c-4 -6 -17 -58 -29 -115 l-21 -104 20 0 c19 0 24 12 43
106 13 59 20 110 17 115 -7 12 -21 11 -30 -2z"/>
<path d="M3593 867 c-71 -43 -72 -71 -4 -109 59 -34 61 -34 61 -5 0 15 -9 29
-25 37 -14 7 -25 16 -25 20 0 4 11 13 25 20 18 9 25 22 25 42 0 15 -1 28 -2
27 -2 0 -27 -15 -55 -32z"/>
<path d="M3900 867 c0 -15 9 -29 25 -37 14 -7 25 -16 25 -20 0 -4 -11 -13 -25
-20 -18 -9 -25 -22 -25 -42 l0 -28 53 34 c72 46 74 72 7 109 -27 15 -52 27
-55 27 -3 0 -5 -10 -5 -23z"/>
<path d="M6957 3606 c-3 -8 3 -26 15 -41 20 -26 18 -57 -4 -53 -7 2 -17 -7
-23 -19 -11 -27 -27 -29 -45 -8 -20 24 -50 19 -50 -9 0 -50 63 -77 122 -52 15
7 16 2 11 -48 l-6 -55 59 -61 59 -62 48 6 c46 5 48 4 41 -17 -12 -39 -6 -79
17 -103 12 -13 29 -24 36 -24 22 0 27 29 9 49 -22 24 -20 48 4 56 11 3 20 15
20 26 0 24 15 24 47 -1 20 -15 29 -17 39 -9 20 16 17 33 -8 56 -33 29 -59 35
-90 19 -34 -18 -41 -9 -26 31 17 44 5 72 -59 136 -60 61 -79 67 -137 42 -17
-7 -18 -6 -11 11 4 10 10 33 13 51 7 55 -64 124 -81 79z m197 -238 c41 -48 45
-63 15 -71 -11 -3 -23 -15 -26 -26 -8 -32 -24 -26 -70 28 -44 51 -54 81 -28
81 9 0 20 11 25 25 8 22 13 24 29 16 11 -6 35 -30 55 -53z"/>
<path d="M248 3236 c-15 -11 -13 -17 19 -57 65 -83 97 -118 104 -114 3 3 15
-5 25 -18 l19 -22 -22 19 c-13 11 -23 16 -23 11 0 -15 62 -85 71 -80 5 4 7 0
4 -7 -3 -7 9 -28 25 -47 16 -18 28 -36 26 -40 -3 -4 -32 -4 -65 -1 -51 5 -60
3 -64 -12 -6 -20 9 -24 126 -33 l77 -7 0 35 c0 19 3 68 6 110 6 65 5 77 -8 77
-16 0 -28 -46 -28 -108 0 -20 -5 -32 -11 -30 -6 2 -43 46 -84 98 -40 52 -78
94 -85 92 -6 -1 -9 2 -5 8 10 16 -44 80 -63 73 -14 -4 -14 -3 -3 5 12 8 11 14
-6 35 -16 20 -22 23 -35 13z"/>
<path d="M36 3023 c-4 -48 -9 -100 -11 -115 -4 -23 -1 -28 15 -28 11 0 23 0
28 0 4 0 9 30 12 67 l5 67 130 -167 c72 -91 133 -166 136 -167 3 0 13 6 23 13
17 13 9 26 -113 180 -72 92 -131 168 -131 170 0 1 28 2 63 2 56 0 62 2 65 21
3 20 -3 23 -60 28 -35 4 -84 9 -110 12 l-46 6 -6 -89z"/>
<path d="M7226 2152 c-6 -10 -126 -349 -126 -356 0 -4 6 -6 14 -6 8 0 22 24
34 58 11 31 40 114 65 185 34 94 42 127 32 127 -8 0 -16 -4 -19 -8z"/>
<path d="M6953 2022 c-66 -37 -103 -63 -103 -74 0 -10 21 -29 53 -46 133 -75
156 -86 163 -79 12 12 -14 32 -98 77 -43 23 -78 45 -78 48 0 4 41 29 90 55 51
27 90 54 90 62 0 8 -3 15 -7 15 -5 -1 -54 -27 -110 -58z"/>
<path d="M7292 2064 c2 -11 37 -37 85 -64 45 -25 84 -48 87 -51 3 -3 -35 -27
-84 -53 -50 -26 -90 -54 -90 -62 0 -21 6 -19 110 39 129 71 129 80 -8 154 -83
44 -103 51 -100 37z"/>
<path d="M375 2018 c-54 -145 -81 -228 -74 -228 12 0 15 7 59 129 21 61 35
111 29 111 -5 0 -12 -6 -14 -12z"/>
<path d="M201 1941 c-36 -21 -67 -43 -68 -48 -2 -6 25 -27 61 -47 70 -39 76
-41 76 -26 0 6 -25 22 -55 37 -30 15 -55 30 -55 34 0 4 25 19 55 35 30 16 55
35 55 42 0 6 -1 12 -2 11 -2 0 -32 -18 -67 -38z"/>
<path d="M610 1967 c0 -7 27 -26 60 -42 32 -15 58 -31 55 -34 -2 -3 -28 -19
-59 -35 -49 -25 -71 -46 -49 -46 17 0 133 72 133 83 0 7 -32 29 -70 50 -46 25
-70 33 -70 24z"/>
<path d="M414 1829 c-8 -14 11 -33 25 -25 6 4 11 14 11 22 0 16 -26 19 -36 3z"/>
<path d="M480 1820 c0 -23 25 -27 33 -6 7 16 -1 26 -20 26 -7 0 -13 -9 -13
-20z"/>
<path d="M544 1829 c-10 -17 13 -36 27 -22 12 12 4 33 -11 33 -5 0 -12 -5 -16
-11z"/>
<path d="M4865 1135 c-50 -49 -17 -135 51 -135 61 0 88 100 38 139 -35 27 -59
26 -89 -4z"/>
<path d="M640 810 l0 -190 40 0 c29 0 40 4 40 15 0 9 -9 15 -25 15 l-25 0 0
160 0 160 25 0 c16 0 25 6 25 15 0 11 -11 15 -40 15 l-40 0 0 -190z"/>
<path d="M960 985 c0 -9 9 -15 25 -15 l25 0 0 -160 0 -160 -25 0 c-16 0 -25
-6 -25 -15 0 -11 11 -15 40 -15 l40 0 0 190 0 190 -40 0 c-29 0 -40 -4 -40
-15z"/>
<path d="M810 958 c0 -43 -12 -68 -31 -68 -11 0 -19 -7 -19 -15 0 -8 9 -15 20
-15 17 0 19 -4 14 -27 -9 -39 -13 -43 -29 -36 -9 3 -15 -1 -15 -11 0 -9 7 -16
16 -16 12 0 15 -10 13 -47 -4 -61 13 -59 25 2 8 38 13 45 30 43 18 -3 20 -9
17 -50 -1 -27 2 -48 7 -48 11 0 22 34 22 73 0 22 4 27 26 27 16 0 24 5 21 13
-2 6 -12 11 -21 11 -12 -1 -16 7 -16 31 0 27 4 34 22 37 29 4 36 28 8 28 -21
0 -22 3 -16 45 6 37 4 45 -8 45 -11 0 -16 -9 -16 -29 0 -43 -10 -61 -32 -61
-18 0 -20 5 -16 45 4 34 2 45 -8 45 -8 0 -14 -10 -14 -22z m60 -105 c-1 -31
-15 -53 -34 -53 -19 0 -22 4 -18 30 3 24 9 30 28 30 13 0 24 -3 24 -7z"/>
<path d="M6829 858 c-1 -18 -1 -39 0 -45 2 -16 -11 -17 -26 -2 -9 9 -19 9 -42
-1 -40 -16 -56 -68 -36 -116 15 -36 56 -54 79 -35 7 6 21 9 30 5 14 -5 16 7
16 110 0 71 -4 116 -10 116 -5 0 -11 -15 -11 -32z m-8 -86 c10 -54 1 -85 -26
-96 -21 -8 -55 28 -55 59 0 37 35 68 60 55 11 -6 21 -14 21 -18z"/>
<path d="M6311 791 c-36 -21 -66 -42 -68 -48 -2 -5 25 -25 59 -44 81 -44 78
-43 78 -30 0 6 -25 23 -55 38 -30 15 -55 30 -55 33 0 3 25 19 55 35 30 17 55
36 55 43 0 6 -1 12 -2 11 -2 0 -32 -18 -67 -38z"/>
<path d="M7050 817 c0 -7 26 -26 57 -43 l57 -32 -57 -32 c-31 -17 -57 -36 -57
-42 0 -11 -2 -12 78 31 34 19 61 39 59 44 -5 16 -137 87 -137 74z"/>
<path d="M6447 800 c-69 -55 -20 -171 62 -145 32 10 25 24 -10 23 -50 -2 -74
45 -49 93 8 13 21 19 45 19 36 0 47 13 19 24 -26 10 -40 7 -67 -14z"/>
<path d="M6575 795 c-17 -16 -25 -35 -25 -60 0 -41 36 -85 70 -85 34 0 70 44
70 85 0 41 -36 85 -70 85 -11 0 -32 -11 -45 -25z m69 -11 c29 -29 12 -114 -23
-114 -41 0 -62 90 -26 116 24 18 30 18 49 -2z"/>
<path d="M6916 799 c-21 -16 -26 -29 -26 -64 0 -66 47 -101 104 -79 28 11 17
26 -13 19 -22 -5 -35 -1 -50 14 -33 33 -25 41 35 41 l56 0 -6 28 c-7 28 -40
62 -61 62 -7 0 -24 -9 -39 -21z m62 -11 c24 -24 13 -38 -28 -38 -44 0 -48 5
-23 32 19 21 34 23 51 6z"/>
</g>
</svg>
